<?xml version="1.0" standalone="no"?>
<!DOCTYPE svg PUBLIC "-//W3C//DTD SVG 20010904//EN"
 "http://www.w3.org/TR/2001/REC-SVG-20010904/DTD/svg10.dtd">
<svg fill="currentColor" version="1.0" xmlns="http://www.w3.org/2000/svg"
 width="400.000000pt" height="400.000000pt" viewBox="0 0 400.000000 400.000000"
 preserveAspectRatio="xMidYMid meet">

<g transform="translate(0.000000,400.000000) scale(0.100000,-0.100000)"
fill="currentColor">
<path fill="currentColor" d="M2275 3498 c-22 -20 -79 -202 -441 -1428 -228 -773 -418 -1421 -421
-1441 -8 -57 23 -84 141 -119 120 -36 146 -37 175 -6 17 18 124 369 437 1427
229 772 418 1420 421 1440 9 58 -23 84 -142 119 -121 36 -137 36 -170 8z"/>
<path fill="currentColor" d="M1075 3096 c-16 -8 -265 -250 -553 -538 -488 -489 -522 -526 -522
-558 0 -32 34 -69 523 -558 303 -305 536 -530 555 -538 46 -20 65 -8 210 139
108 109 122 128 122 158 0 31 -30 64 -382 416 l-383 383 383 383 c353 353 382
385 382 417 0 30 -14 48 -132 166 -73 73 -142 135 -153 138 -11 3 -33 -1 -50
-8z"/>
<path fill="currentColor" d="M2722 2967 c-117 -119 -132 -137 -132 -168 0 -31 30 -63 382 -416
l383 -383 -383 -383 c-352 -353 -382 -385 -382 -416 0 -30 15 -49 128 -164 70
-71 137 -133 150 -138 16 -6 33 -4 55 5 18 8 258 241 555 538 488 490 522 526
522 558 0 33 -34 69 -533 567 -527 528 -533 533 -573 533 -38 0 -46 -6 -172
-133z"/>
</g>
</svg>
