<svg width="13" height="16" viewBox="0 0 13 16" fill="none" xmlns="http://www.w3.org/2000/svg">
<path d="M5.7418 15.1545C4.75057 15.1545 3.85653 15.0054 3.05966 14.7074C2.26928 14.4093 1.6441 13.972 1.18412 13.3954C0.724118 12.8124 0.494141 12.0997 0.494141 11.2575C0.494141 10.5708 0.6723 9.9618 1.02862 9.43055C1.39141 8.8993 1.91296 8.39396 2.59321 7.91455C3.27994 7.43514 4.10919 6.93305 5.08098 6.40828C5.92321 5.94182 6.53544 5.4948 6.91766 5.06721C7.29989 4.63314 7.49103 4.18612 7.49103 3.72614C7.49103 3.44107 7.42948 3.20462 7.30639 3.01673C7.18328 2.82237 7.01807 2.67337 6.81078 2.56971C6.60346 2.46605 6.37023 2.41423 6.11107 2.41423C5.86489 2.41423 5.63166 2.46605 5.41139 2.56971C5.1976 2.66689 5.02269 2.81267 4.88662 3.00701C4.75705 3.19489 4.69228 3.43137 4.69228 3.71641C4.69228 4.11162 4.82185 4.53273 5.08098 4.97976C5.3466 5.42678 5.68673 5.90619 6.10137 6.41801L10.9992 12.3362C11.2389 12.6213 11.4624 12.8026 11.6697 12.8804C11.877 12.9581 12.0486 12.997 12.1848 12.997C12.3273 12.997 12.4763 12.9776 12.6318 12.9387C12.7938 12.8998 12.9104 12.8674 12.9816 12.8415V14.9308C12.9427 14.9438 12.8163 14.9763 12.6027 15.0281C12.3888 15.0863 12.1134 15.1156 11.7766 15.1156C11.4138 15.1156 11.0283 15.0377 10.6202 14.8822C10.212 14.7204 9.86219 14.4611 9.57064 14.1049L4.24526 7.73964C3.94723 7.37035 3.63951 6.96869 3.32205 6.53462C3.0046 6.09407 2.73898 5.62762 2.52519 5.13523C2.31139 4.63639 2.20448 4.1181 2.20448 3.58037C2.20448 3.00378 2.36969 2.48226 2.7001 2.0158C3.03698 1.54285 3.49696 1.1671 4.08005 0.888505C4.66312 0.60346 5.33364 0.460938 6.09164 0.460938C6.8626 0.460938 7.52989 0.60021 8.09353 0.878801C8.65717 1.15737 9.09448 1.52989 9.40544 1.99635C9.71642 2.46282 9.87191 2.98435 9.87191 3.56094C9.87191 4.21528 9.72937 4.8016 9.44432 5.31987C9.16573 5.83817 8.7576 6.32082 8.21987 6.76785C7.68862 7.20839 7.04401 7.64569 6.28601 8.07976C5.30126 8.64339 4.54973 9.14548 4.03146 9.58603C3.51964 10.0201 3.26373 10.5319 3.26373 11.1215C3.26373 11.4843 3.37712 11.8114 3.60387 12.103C3.83062 12.388 4.13187 12.6115 4.50762 12.7735C4.88987 12.9355 5.31098 13.0164 5.77096 13.0164C6.56135 13.0164 7.22864 12.8933 7.77285 12.6472C8.32353 12.401 8.78998 12.0771 9.17221 11.6754C9.57389 11.2543 9.89135 10.7813 10.1246 10.2566C10.3578 9.72532 10.4744 9.06126 10.4744 8.26439H12.9234C12.9234 9.06126 12.8261 9.76744 12.6318 10.3829C12.4438 10.9984 12.1945 11.5426 11.8836 12.0155C11.5725 12.482 11.2292 12.8966 10.8534 13.2595C10.2833 13.8231 9.56416 14.2797 8.69605 14.6297C7.83439 14.9795 6.84964 15.1545 5.7418 15.1545Z" fill="#41B19B"/>
</svg>
