
<svg version="1.0" xmlns="http://www.w3.org/2000/svg" viewBox="0 0 225.000000 225.000000" preserveAspectRatio="xMidYMid meet">
    <g transform="translate(0.000000,225.000000) scale(0.100000,-0.100000)" fill="currentColor" stroke="none">
        <path d="M1746 2035 c-19 -48 -82 -127 -118 -146 -26 -14 -51 3 -72 49 -15 33 -21 38 -45 34 -19 -3 -37 4 -58 22 -30 25 -31 25 -64 9 -18 -9 -55 -18 -83 -21 -28 -3 -64 -13 -81 -23 -17 -11 -49 -19 -72 -19 -41 0 -43 -2 -43 -29 0 -35 -30 -74 -70 -91 -36 -15 -37 -20 -5 -50 31 -29 31 -37 4 -45 -12 -4 -67 -53 -123 -109 -90 -90 -107 -103 -154 -115 -131 -33 -229 -109 -280 -219 -24 -52 -27 -69 -28 -183 -1 -70 -5 -132 -9 -139 -13 -21 -89 -50 -133 -50 -56 0 -101 22 -151 72 -58 57 -75 109 -69 210 3 46 9 92 13 103 15 37 -40 -21 -68 -73 -71 -130 -26 -316 105 -437 87 -81 184 -103 307 -71 l53 14 -6 -36 c-3 -20 -12 -42 -19 -50 -13 -12 -13 -20 0 -60 13 -42 12 -53 -3 -105 l-17 -57 31 -31 c28 -27 39 -31 97 -34 52 -2 70 1 89 16 13 10 33 19 44 19 11 0 25 7 32 15 11 14 7 22 -28 58 -38 39 -42 47 -42 94 0 41 5 57 31 89 48 59 79 132 79 185 0 47 10 59 45 59 8 0 37 -20 65 -45 28 -25 61 -47 74 -51 21 -5 24 -13 28 -65 3 -41 11 -66 25 -81 11 -13 28 -43 37 -68 22 -57 42 -78 89 -97 81 -33 111 -102 77 -181 -27 -63 -24 -96 10 -101 14 -1 37 -12 51 -22 25 -17 30 -18 63 -4 29 12 45 13 76 5 44 -12 80 0 80 26 0 8 16 22 35 30 49 20 46 46 -12 98 l-46 42 18 28 c14 21 24 26 42 22 99 -24 101 -21 63 91 -32 98 -39 184 -20 281 23 126 29 214 19 288 -7 55 -7 79 1 89 22 26 82 26 219 0 196 -37 271 -31 301 24 17 32 12 41 -24 41 -27 0 -46 10 -88 49 -29 27 -50 52 -46 56 3 4 24 9 46 12 54 7 124 -26 152 -73 25 -40 35 -37 61 20 25 54 24 83 -6 171 l-24 73 19 38 c15 29 20 58 20 119 l-1 80 -25 -48 c-13 -26 -43 -61 -66 -77 -36 -27 -49 -30 -112 -30 -91 0 -140 14 -166 47 -36 46 -27 67 71 169 76 80 119 141 119 169 0 20 -228 -124 -296 -187 -34 -32 -47 -39 -54 -28 -5 8 2 27 20 52 37 51 55 129 43 188 l-9 45 -18 -50z m-367 -1355 l1 -45 -25 25 c-19 19 -26 40 -31 92 -6 64 -6 66 17 70 22 3 25 -2 31 -47 3 -27 6 -70 7 -95z"/>
    </g>
</svg>
