<svg version="1.0" xmlns="http://www.w3.org/2000/svg" viewBox="0 0 1200.000000 1157.000000" preserveAspectRatio="xMidYMid meet">
    <g transform="translate(0.000000,1157.000000) scale(0.100000,-0.100000)" fill="currentColor" stroke="none">
    <path d="M1910 11559 c-145 -15 -299 -49 -452 -100 -326 -108 -590 -270 -833 -514 -353 -352 -565 -801 -614 -1299 -15 -149 -15 -7569 -1 -7717 32 -320 134 -630 296 -899 169 -281 420 -536 699 -710 271 -169 607 -280 935 -310 91 -8 1220 -10 4145 -7 3706 3 4027 5 4113 20 476 85 855 279 1177 602 354 354 568 810 614 1305 15 157 15 7564 1 7711 -24 237 -99 512 -193 709 -328 684 -971 1136 -1721 1209 -135 14 -8037 13 -8166 0z m7200 -2450 c96 -14 162 -38 188 -66 l22 -24 -2 -422 -3 -422 -170 3 c-353 8 -489 -69 -556 -313 -18 -66 -22 -115 -26 -287 l-5 -207 355 -3 c276 -2 359 -6 369 -16 10 -10 14 -106 16 -437 3 -415 2 -425 -18 -445 -19 -19 -32 -20 -370 -20 l-350 0 0 -1488 c0 -1330 -2 -1490 -16 -1510 l-15 -22 -519 0 -519 0 -15 22 c-14 20 -16 180 -16 1510 l0 1488 -247 0 c-215 0 -249 2 -265 17 -17 15 -18 42 -18 444 l0 428 22 15 c19 13 62 16 264 16 l241 0 6 198 c17 528 115 828 368 1127 200 237 489 388 814 425 92 10 369 4 465 -11z m-3016 -444 c163 -17 298 -43 419 -82 71 -22 80 -28 93 -58 11 -28 14 -118 14 -482 0 -246 -3 -458 -6 -470 -8 -31 -29 -29 -126 11 -234 96 -558 146 -961 147 -296 0 -448 -23 -674 -102 -234 -82 -404 -189 -579 -363 -179 -180 -286 -353 -367 -597 -77 -229 -102 -418 -94 -699 9 -344 80 -614 223 -857 214 -363 532 -591 988 -708 218 -56 358 -69 671 -62 376 8 568 33 767 98 87 28 93 29 105 13 10 -14 13 -116 13 -448 0 -525 9 -486 -130 -532 -257 -85 -714 -133 -1135 -121 -510 16 -917 110 -1304 303 -603 299 -1032 813 -1212 1453 -89 320 -113 508 -113 901 0 275 3 333 22 455 77 490 274 947 554 1280 136 163 336 345 497 454 370 251 906 432 1421 481 145 13 739 4 914 -15z"/>
    </g>
</svg>
