<svg width="20" height="20" viewBox="0 0 20 20" fill="none" xmlns="http://www.w3.org/2000/svg">
<path d="M3.52333 15.3127C3.54332 15.3948 3.57958 15.4721 3.62995 15.5401C3.68033 15.608 3.74381 15.6651 3.81664 15.7081C3.88947 15.751 3.97017 15.779 4.05397 15.7902C4.13778 15.8015 4.22299 15.7958 4.30458 15.7736C8.02879 14.7424 11.9632 14.7424 15.6874 15.7736C15.769 15.7958 15.8542 15.8015 15.938 15.7902C16.0218 15.779 16.1025 15.751 16.1753 15.7081C16.2482 15.6651 16.3116 15.608 16.362 15.5401C16.4124 15.4721 16.4486 15.3948 16.4686 15.3127L18.4608 6.85172C18.4882 6.73847 18.4833 6.61983 18.4468 6.50919C18.4103 6.39854 18.3436 6.30031 18.2543 6.22556C18.1649 6.15081 18.0564 6.10254 17.9411 6.08618C17.8257 6.06982 17.7081 6.08602 17.6015 6.13297L13.6483 7.89078C13.5051 7.95385 13.3436 7.9616 13.195 7.91254C13.0463 7.86349 12.9212 7.7611 12.8436 7.62516L10.5468 3.48453C10.4927 3.38684 10.4135 3.30542 10.3173 3.24872C10.2211 3.19201 10.1115 3.16211 9.99989 3.16211C9.88825 3.16211 9.77864 3.19201 9.68247 3.24872C9.5863 3.30542 9.50707 3.38684 9.45302 3.48453L7.15614 7.62516C7.0786 7.7611 6.95344 7.86349 6.80482 7.91254C6.65621 7.9616 6.49469 7.95385 6.35145 7.89078L2.39833 6.13297C2.2917 6.08602 2.17407 6.06982 2.05872 6.08618C1.94337 6.10254 1.83488 6.15081 1.74551 6.22556C1.65614 6.30031 1.58944 6.39854 1.55295 6.50919C1.51645 6.61983 1.5116 6.73847 1.53895 6.85172L3.52333 15.3127Z" stroke="white" stroke-width="1.25" stroke-linecap="round" stroke-linejoin="round"/>
</svg>
