<svg width="18" height="18" viewBox="0 0 18 18" fill="none" xmlns="http://www.w3.org/2000/svg">
<path d="M11.0829 16.4196C13.45 15.2446 15.8166 12.1466 17.108 10.0101C18.3993 7.87355 15.6823 5.87057 14.0954 7.44625C12.5085 9.02195 12.3739 9.15548 12.3739 9.15548V2.10495C12.3738 1.27895 11.6994 0.609375 10.8675 0.609375C10.0356 0.609375 9.3612 1.27895 9.3612 2.10495V6.16432C9.3612 5.33835 8.68681 4.66877 7.85486 4.66877C7.02295 4.66877 6.34855 5.33835 6.34855 6.16432V6.8053C6.34855 5.97932 5.67414 5.30972 4.84222 5.30972C4.0103 5.30972 3.33589 5.97932 3.33589 6.8053V4.66877C3.33589 3.84277 2.66149 3.1732 1.82955 3.1732C0.997634 3.1732 0.323242 3.8428 0.323242 4.66877V11.7684C0.323242 12.5792 0.504814 13.3875 1.00048 14.0317C1.55743 14.7556 2.46761 15.7163 3.76644 16.4196C6.13357 17.7015 8.71581 17.5947 11.0829 16.4196Z" fill="currentColor"/>
</svg>
